<svg width="100" height="101" viewBox="0 0 100 101" fill="none" xmlns="http://www.w3.org/2000/svg">
<path d="M93.75 88C93.75 88 100 88 100 81.75C100 75.5 93.75 56.75 68.75 56.75C43.75 56.75 37.5 75.5 37.5 81.75C37.5 88 43.75 88 43.75 88H93.75ZM43.8875 81.75L43.75 81.725C43.7562 80.075 44.7938 75.2875 48.5 70.975C51.95 66.9313 58.0125 63 68.75 63C79.4812 63 85.5437 66.9375 89 70.975C92.7062 75.2875 93.7375 80.0813 93.75 81.725L93.7 81.7375L93.6125 81.75H43.8875ZM68.75 44.25C72.0652 44.25 75.2446 42.933 77.5888 40.5888C79.933 38.2446 81.25 35.0652 81.25 31.75C81.25 28.4348 79.933 25.2554 77.5888 22.9112C75.2446 20.567 72.0652 19.25 68.75 19.25C65.4348 19.25 62.2554 20.567 59.9112 22.9112C57.567 25.2554 56.25 28.4348 56.25 31.75C56.25 35.0652 57.567 38.2446 59.9112 40.5888C62.2554 42.933 65.4348 44.25 68.75 44.25ZM87.5 31.75C87.5 34.2123 87.015 36.6505 86.0727 38.9253C85.1305 41.2002 83.7494 43.2672 82.0083 45.0083C80.2672 46.7494 78.2002 48.1305 75.9253 49.0727C73.6505 50.015 71.2123 50.5 68.75 50.5C66.2877 50.5 63.8495 50.015 61.5747 49.0727C59.2998 48.1305 57.2328 46.7494 55.4917 45.0083C53.7506 43.2672 52.3695 41.2002 51.4273 38.9253C50.485 36.6505 50 34.2123 50 31.75C50 26.7772 51.9754 22.0081 55.4917 18.4917C59.0081 14.9754 63.7772 13 68.75 13C73.7228 13 78.492 14.9754 82.0083 18.4917C85.5246 22.0081 87.5 26.7772 87.5 31.75ZM43.35 58.5C40.8485 57.7182 38.2719 57.2008 35.6625 56.9562C34.1961 56.8132 32.7234 56.7444 31.25 56.75C6.25 56.75 0 75.5 0 81.75C0 85.9167 2.08333 88 6.25 88H32.6C31.6739 86.0487 31.2119 83.9096 31.25 81.75C31.25 75.4375 33.6063 68.9875 38.0625 63.6C39.5812 61.7625 41.35 60.0437 43.35 58.5ZM30.75 63C27.0533 68.559 25.0553 75.0742 25 81.75H6.25C6.25 80.125 7.275 75.3125 11 70.975C14.4062 67 20.325 63.125 30.75 63.0063V63ZM9.375 34.875C9.375 29.9022 11.3504 25.1331 14.8667 21.6167C18.3831 18.1004 23.1522 16.125 28.125 16.125C33.0978 16.125 37.8669 18.1004 41.3833 21.6167C44.8996 25.1331 46.875 29.9022 46.875 34.875C46.875 39.8478 44.8996 44.6169 41.3833 48.1333C37.8669 51.6496 33.0978 53.625 28.125 53.625C23.1522 53.625 18.3831 51.6496 14.8667 48.1333C11.3504 44.6169 9.375 39.8478 9.375 34.875ZM28.125 22.375C24.8098 22.375 21.6304 23.692 19.2862 26.0362C16.942 28.3804 15.625 31.5598 15.625 34.875C15.625 38.1902 16.942 41.3696 19.2862 43.7138C21.6304 46.058 24.8098 47.375 28.125 47.375C31.4402 47.375 34.6196 46.058 36.9638 43.7138C39.308 41.3696 40.625 38.1902 40.625 34.875C40.625 31.5598 39.308 28.3804 36.9638 26.0362C34.6196 23.692 31.4402 22.375 28.125 22.375Z" fill="#FDF4C9"/>
</svg>
