<svg width="100" height="95" viewBox="0 0 100 95" fill="none" xmlns="http://www.w3.org/2000/svg">
<path d="M19.4009 1.875C19.692 1.48689 20.0694 1.17188 20.5033 0.954915C20.9373 0.737953 21.4157 0.625 21.9009 0.625H78.1509C78.636 0.625 79.1145 0.737953 79.5484 0.954915C79.9823 1.17188 80.3598 1.48689 80.6509 1.875L99.2509 26.7125C100.182 27.8687 100.226 29.525 99.3134 30.7375L52.5259 93.125C52.2348 93.5131 51.8573 93.8281 51.4234 94.0451C50.9895 94.262 50.511 94.375 50.0259 94.375C49.5407 94.375 49.0623 94.262 48.6283 94.0451C48.1944 93.8281 47.817 93.5131 47.5259 93.125L0.650879 30.625C0.245185 30.0841 0.0258789 29.4262 0.0258789 28.75C0.0258789 28.0738 0.245185 27.4159 0.650879 26.875L19.4009 1.875ZM90.5634 25.5312L79.2759 10.4688L74.4259 25.55L90.5634 25.5312ZM67.8571 25.5562L73.8634 6.875H26.1884L32.2071 25.5938L67.8571 25.5562ZM34.2134 31.8438L50.0259 81.0375L65.8509 31.8125L34.2134 31.8438ZM25.6446 25.6L20.7696 10.4625L9.40713 25.6187L25.6446 25.6ZM9.39463 31.875L41.3509 74.4813L27.6509 31.8563L9.39463 31.875ZM58.7009 74.4813L90.7196 31.7938L72.4196 31.8062L58.7009 74.4813Z" fill="#FDF4C9"/>
</svg>
