<svg xmlns="http://www.w3.org/2000/svg" xmlns:xlink="http://www.w3.org/1999/xlink" width="1080" zoomAndPan="magnify" viewBox="0 0 810 809.999993" height="1080" preserveAspectRatio="xMidYMid meet" version="1.0"><defs><clipPath id="0adddac135"><path d="M 523 202 L 809.539062 202 L 809.539062 596.609375 L 523 596.609375 Z M 523 202 " clip-rule="nonzero"/></clipPath><clipPath id="53391a1c0a"><path d="M 430 173.671875 L 537 173.671875 L 537 313 L 430 313 Z M 430 173.671875 " clip-rule="nonzero"/></clipPath><clipPath id="b938915fce"><path d="M 232 235.941406 L 640.121094 235.941406 L 640.121094 636 L 232 636 Z M 232 235.941406 " clip-rule="nonzero"/></clipPath></defs><path fill="#000000" d="M 311.644531 559.097656 L 321.941406 559.097656 C 321.410156 556.984375 319.40625 552.289062 315.605469 550.386719 C 311.804688 548.484375 305.574219 542.730469 302.933594 540.09375 C 301.351562 537.980469 297.707031 532.332031 295.808594 526.628906 C 293.90625 520.929688 297.125 513.695312 298.976562 510.792969 L 302.933594 503.664062 L 298.976562 503.664062 C 297.390625 504.71875 293.113281 508.257812 288.679688 513.960938 C 284.246094 519.660156 284.71875 527.421875 285.511719 530.589844 C 286.039062 534.8125 288.996094 544.683594 296.597656 550.386719 C 304.203125 556.089844 309.796875 558.570312 311.644531 559.097656 Z M 311.644531 559.097656 " fill-opacity="1" fill-rule="nonzero"/><g clip-path="url(#0adddac135)"><path fill="#000000" d="M 642.660156 207.492188 L 642.660156 210.660156 L 649.789062 210.660156 L 665.625 220.160156 L 671.960938 233.625 L 679.878906 260.550781 L 679.878906 262.363281 L 672.753906 271.867188 L 663.25 283.746094 L 660.082031 285.332031 L 664.835938 290.875 L 670.378906 286.914062 L 677.503906 278.996094 L 684.632812 271.074219 L 684.632812 266.882812 L 687.007812 270.050781 L 702.84375 284.304688 L 746.398438 316.773438 L 778.867188 344.492188 C 783.355469 347.660156 792.648438 355.894531 793.914062 363.496094 C 795.179688 371.097656 790.746094 375.113281 788.371094 376.167969 C 782.828125 378.804688 768.097656 385.035156 753.527344 388.839844 C 735.3125 393.589844 716.308594 394.382812 693.34375 394.382812 C 670.378906 394.382812 653.746094 395.171875 630.78125 400.71875 C 607.816406 406.261719 604.648438 411.011719 586.4375 426.851562 C 571.863281 439.519531 556.078125 465.914062 550.007812 477.53125 L 531.792969 513.960938 L 523.082031 575.726562 L 528.625 596.316406 L 543.671875 596.316406 C 542.617188 586.285156 540.347656 562.265625 539.714844 546.425781 C 539.078125 530.589844 546.3125 512.902344 550.007812 506.039062 L 564.261719 477.53125 C 574.558594 464.070312 596.414062 435.878906 601.480469 430.808594 C 607.816406 424.472656 615.734375 423.683594 622.863281 417.347656 C 628.566406 412.277344 639.492188 408.898438 644.246094 407.84375 L 700.46875 404.675781 L 746.398438 402.300781 L 781.242188 394.382812 L 804.210938 379.335938 C 806.058594 375.902344 809.753906 367.457031 809.753906 361.121094 C 809.753906 354.785156 801.304688 346.339844 797.082031 342.90625 L 750.359375 304.105469 L 700.46875 266.882812 L 687.007812 256.589844 L 683.839844 243.917969 L 679.878906 224.121094 L 665.625 207.492188 C 662.722656 205.90625 656.125 202.738281 652.957031 202.738281 C 649.789062 202.738281 644.773438 205.90625 642.660156 207.492188 Z M 642.660156 207.492188 " fill-opacity="1" fill-rule="nonzero"/></g><path fill="#000000" d="M 598.3125 327.070312 L 594.355469 334.195312 L 620.488281 341.324219 L 658.5 346.074219 L 694.132812 350.035156 L 720.265625 350.035156 L 711.554688 341.324219 L 676.710938 337.363281 L 641.867188 331.027344 L 602.273438 327.070312 Z M 598.3125 327.070312 " fill-opacity="1" fill-rule="nonzero"/><path fill="#000000" d="M 419.34375 357.160156 L 375.789062 373 L 420.929688 364.289062 L 443.101562 352.410156 L 450.226562 342.90625 Z M 419.34375 357.160156 " fill-opacity="1" fill-rule="nonzero"/><path fill="#000000" d="M 482.695312 289.847656 L 486.65625 280.347656 L 479.527344 285.097656 L 468.441406 293.015625 C 468.441406 293.015625 457.078125 300.972656 448.644531 302.519531 C 442.863281 303.578125 433.597656 302.519531 433.597656 302.519531 L 428.847656 296.183594 L 429.640625 302.519531 C 429.640625 302.519531 431.347656 308.503906 434.390625 310.4375 C 438.042969 312.761719 445.476562 310.4375 445.476562 310.4375 C 445.476562 310.4375 457.546875 307.71875 464.484375 304.105469 C 472.492188 299.929688 482.695312 289.847656 482.695312 289.847656 Z M 482.695312 289.847656 " fill-opacity="1" fill-rule="nonzero"/><g clip-path="url(#53391a1c0a)"><path fill="#000000" d="M 444.683594 194.027344 L 430.429688 204.324219 C 431.488281 199.574219 437.003906 190.621094 438.351562 189.277344 C 440.726562 186.902344 447.0625 183.734375 458.144531 178.191406 L 458.148438 178.191406 C 469.136719 172.695312 479.347656 173.425781 490.324219 174.210938 L 490.617188 174.230469 C 501.703125 175.023438 510.414062 178.984375 521.5 186.109375 C 530.367188 191.8125 534.699219 203.796875 535.753906 209.074219 C 535.753906 209.074219 538.128906 224.648438 535.753906 232.039062 C 533.378906 239.433594 528.46875 256.75 527.835938 266.882812 C 527.042969 279.554688 530.210938 284.304688 534.171875 293.808594 C 538.128906 303.3125 535.753906 304.894531 526.25 312.816406 C 523.71875 312.816406 519.386719 300.144531 517.539062 293.808594 C 516.484375 285.097656 514.371094 266.410156 514.371094 261.339844 C 514.371094 256.273438 519.914062 232.039062 519.914062 232.039062 C 519.914062 232.039062 516.90625 208.125 514.371094 204.324219 C 511.203125 199.574219 514.371094 197.195312 500.117188 190.070312 C 488.714844 184.367188 473.722656 185.054688 467.648438 186.109375 Z M 444.683594 194.027344 " fill-opacity="1" fill-rule="nonzero"/></g><path fill="#000000" d="M 420.929688 248.109375 L 428.054688 227.519531 L 424.886719 245.734375 L 423.304688 252.070312 L 420.136719 260.78125 L 418.550781 266.324219 L 420.929688 269.492188 L 424.886719 275.035156 L 428.847656 285.332031 L 428.054688 293.25 L 428.054688 289.289062 L 423.304688 277.410156 L 417.761719 271.867188 L 410.632812 271.867188 L 413.800781 265.53125 Z M 420.929688 248.109375 " fill-opacity="1" fill-rule="nonzero"/><path fill="#000000" d="M 476.359375 471.425781 L 458.148438 489.640625 L 468.441406 458.757812 L 488.238281 428.664062 L 514.371094 398.574219 L 522.292969 406.492188 L 542.882812 406.492188 L 562.679688 404.117188 C 558.71875 409.660156 548.265625 421.695312 538.128906 425.496094 C 527.992188 429.296875 518.066406 429.191406 514.371094 428.664062 L 491.40625 447.671875 Z M 476.359375 471.425781 " fill-opacity="1" fill-rule="nonzero"/><path fill="#000000" d="M 142.875 363.265625 L 86.941406 341.921875 L 65.597656 347.074219 L 37.628906 359.585938 L 0.0976562 379.457031 L 8.191406 380.925781 L 15.550781 380.925781 L 37.628906 372.097656 L 57.503906 365.472656 L 66.332031 365.472656 L 67.804688 372.097656 L 64.125 380.925781 L 57.503906 389.757812 L 57.503906 395.648438 L 59.710938 395.648438 L 75.164062 380.925781 L 83.261719 363.265625 L 90.621094 354.433594 L 131.835938 386.816406 L 187.769531 423.613281 L 226.777344 434.652344 L 280.503906 445.695312 L 276.085938 413.3125 L 280.503906 400.800781 L 226.777344 400.800781 L 187.769531 386.816406 Z M 142.875 363.265625 " fill-opacity="1" fill-rule="nonzero"/><g clip-path="url(#b938915fce)"><path fill="#000000" d="M 259.894531 302.179688 L 269.464844 316.898438 L 269.464844 303.648438 L 265.785156 272.738281 L 274.617188 252.867188 L 285.65625 244.035156 L 297.429688 239.621094 C 304.789062 237.410156 321.925781 235.863281 327.605469 237.410156 C 335.703125 239.621094 340.117188 243.300781 344.535156 245.507812 C 348.257812 247.371094 355.082031 258.019531 357.78125 263.90625 L 362.933594 280.835938 L 370.292969 286.722656 L 382.804688 293.347656 L 376.179688 300.707031 L 378.390625 331.617188 L 378.390625 337.503906 L 370.292969 340.449219 L 344.535156 340.449219 L 344.535156 360.320312 L 348.949219 373.566406 L 365.140625 391.230469 L 399.730469 389.757812 L 433.585938 383.871094 L 474.800781 369.886719 L 503.503906 353.695312 L 551.34375 316.160156 L 613.164062 258.753906 L 635.980469 235.941406 L 641.132812 235.941406 L 628.621094 265.378906 L 551.34375 353.695312 L 503.503906 391.230469 L 478.480469 403.742188 L 410.035156 428.765625 L 380.597656 434.652344 L 359.988281 440.542969 L 357.78125 444.957031 L 376.917969 446.429688 L 403.410156 443.484375 L 418.867188 440.542969 L 429.171875 447.164062 L 433.585938 458.207031 L 426.964844 486.171875 L 426.964844 528.125 L 421.074219 561.976562 L 410.035156 598.042969 L 289.335938 635.574219 C 293.996094 625.273438 304.9375 603.339844 311.414062 598.042969 C 317.890625 592.742188 341.589844 573.265625 352.628906 564.1875 L 359.253906 546.523438 L 359.988281 542.84375 L 380.597656 542.84375 L 407.828125 522.234375 L 410.035156 512.667969 L 404.882812 519.292969 L 410.035156 507.515625 L 412.242188 497.949219 L 404.882812 500.890625 L 407.828125 486.171875 C 407.828125 486.171875 384.863281 494.179688 369.558594 496.476562 C 364.410156 497.25 356.308594 497.949219 356.308594 497.949219 L 365.140625 477.339844 L 365.140625 464.09375 L 352.628906 477.339844 L 343.0625 481.019531 L 326.574219 490.589844 L 320.984375 481.019531 C 318.285156 477.585938 311.265625 467.332031 304.789062 453.789062 C 298.3125 440.246094 297.183594 427.046875 297.429688 422.140625 L 297.429688 403.742188 L 304.789062 353.695312 C 304.054688 344.128906 301.550781 323.960938 297.429688 319.839844 C 293.308594 315.71875 292.769531 318.125 293.015625 319.839844 L 290.808594 330.882812 C 289.824219 334.316406 286.832031 341.921875 282.710938 344.863281 C 277.558594 348.542969 269.464844 350.753906 262.105469 351.488281 C 254.746094 352.222656 245.914062 346.335938 243.703125 344.863281 C 241.496094 343.394531 233.402344 330.882812 232.664062 324.992188 C 231.929688 319.105469 239.289062 308.800781 245.914062 302.179688 C 251.210938 296.878906 257.441406 299.96875 259.894531 302.179688 Z M 259.894531 302.179688 " fill-opacity="1" fill-rule="nonzero"/></g></svg>