<svg width="36" height="36" viewBox="0 0 36 36" fill="none" xmlns="http://www.w3.org/2000/svg">
<g clip-path="url(#clip0_97_9)">
<path d="M30.6022 5.23362C28.9521 3.56749 26.9867 2.24663 24.8207 1.34809C22.6547 0.449543 20.3315 -0.00868685 17.9865 0.000124706C8.16075 0.000124706 0.153 8.00562 0.144 17.8336C0.144 20.9814 0.9675 24.0436 2.52225 26.7549L0 36.0001L9.459 33.5206C12.0746 34.9476 15.0069 35.6943 17.9865 35.6919H17.9955C27.8235 35.6919 35.829 27.6864 35.838 17.8494C35.84 15.505 35.3782 13.1834 34.4793 11.0182C33.5803 8.85308 32.2642 6.88714 30.6022 5.23362ZM17.9865 32.6724C15.3296 32.6703 12.722 31.9554 10.4355 30.6024L9.8955 30.2784L4.284 31.7499L5.7825 26.2756L5.4315 25.7109C3.94607 23.3491 3.16046 20.6147 3.16575 17.8246C3.16575 9.66612 9.819 3.01062 17.9955 3.01062C19.9434 3.00713 21.8728 3.38924 23.6723 4.13493C25.4718 4.88062 27.106 5.97513 28.4805 7.35537C29.8595 8.73046 30.9528 10.3648 31.6973 12.1644C32.4418 13.9639 32.8229 15.8929 32.8185 17.8404C32.8095 26.0281 26.1562 32.6724 17.9865 32.6724ZM26.1202 21.5709C25.677 21.3481 23.4877 20.2704 23.076 20.1174C22.6665 19.9711 22.3672 19.8946 22.0747 20.3401C21.7755 20.7834 20.9205 21.7936 20.664 22.0839C20.4075 22.3831 20.142 22.4169 19.6965 22.1964C19.2532 21.9714 17.8155 21.5034 16.1145 19.9801C14.787 18.7989 13.8982 17.3364 13.6327 16.8931C13.3762 16.4476 13.608 16.2091 13.8307 15.9864C14.0265 15.7884 14.274 15.4644 14.4967 15.2079C14.7217 14.9514 14.796 14.7624 14.9422 14.4654C15.0885 14.1639 15.0187 13.9074 14.9085 13.6846C14.796 13.4619 13.9072 11.2636 13.5315 10.3771C13.1715 9.50187 12.8047 9.62337 12.5302 9.61212C12.2737 9.59637 11.9745 9.59637 11.6752 9.59637C11.4493 9.60212 11.227 9.65445 11.0221 9.75008C10.8173 9.84571 10.6345 9.98258 10.485 10.1521C10.0755 10.5976 8.93025 11.6754 8.93025 13.8736C8.93025 16.0719 10.5277 18.1846 10.7527 18.4839C10.9732 18.7831 13.8892 23.2809 18.3645 25.2159C19.422 25.6771 20.2545 25.9494 20.9047 26.1564C21.9735 26.4984 22.9387 26.4466 23.7082 26.3364C24.5632 26.2059 26.343 25.2564 26.7187 24.2146C27.0877 23.1706 27.0877 22.2796 26.9752 22.0929C26.865 21.9039 26.5657 21.7936 26.1202 21.5709Z" fill="#B1353D"/>
</g>
<defs>
<clipPath id="clip0_97_9">
<rect width="36" height="36" fill="white"/>
</clipPath>
</defs>
</svg>
