<svg width="36" height="26" viewBox="0 0 36 26" fill="none" xmlns="http://www.w3.org/2000/svg">
<path d="M18.1147 0.497829H18.315C20.1645 0.504579 29.5357 0.57208 32.0625 1.25158C32.8264 1.45896 33.5224 1.86318 34.0811 2.42385C34.6398 2.98452 35.0416 3.68199 35.2463 4.44658C35.4735 5.30158 35.6333 6.43333 35.7412 7.60108L35.7638 7.83508L35.8132 8.42008L35.8312 8.65408C35.9775 10.7106 35.9955 12.6366 35.9977 13.0573V13.2261C35.9955 13.6626 35.9753 15.7191 35.8132 17.8611L35.7952 18.0973L35.775 18.3313C35.6625 19.6183 35.496 20.8963 35.2463 21.8368C35.0416 22.6014 34.6398 23.2989 34.0811 23.8596C33.5224 24.4202 32.8264 24.8245 32.0625 25.0318C29.4525 25.7338 19.5322 25.7833 18.1575 25.7856H17.838C17.1427 25.7856 14.2673 25.7721 11.2522 25.6686L10.8698 25.6551L10.674 25.6461L10.2892 25.6303L9.9045 25.6146C7.407 25.5043 5.02875 25.3266 3.933 25.0296C3.16941 24.8224 2.47354 24.4185 1.91487 23.8583C1.35619 23.298 0.954277 22.601 0.74925 21.8368C0.4995 20.8986 0.333 19.6183 0.2205 18.3313L0.2025 18.0951L0.1845 17.8611C0.0728177 16.3365 0.0112845 14.8087 0 13.2801L0 13.0033C0.0045 12.5196 0.0225 10.8478 0.144 9.00283L0.15975 8.77108L0.1665 8.65408L0.1845 8.42008L0.234 7.83508L0.2565 7.60108C0.3645 6.43333 0.52425 5.29933 0.7515 4.44658C0.956183 3.68199 1.35795 2.98452 1.91664 2.42385C2.47533 1.86318 3.17139 1.45896 3.93525 1.25158C5.031 0.95908 7.40925 0.779079 9.90675 0.666579L10.2892 0.650829L10.6762 0.63733L10.8698 0.63058L11.2545 0.61483C13.3958 0.545988 15.5381 0.507733 17.6805 0.50008L18.1147 0.497829ZM14.4 7.72033V18.5608L23.7533 13.1428L14.4 7.72033Z" fill="#B1353D"/>
</svg>
