<svg width="36" height="36" viewBox="0 0 36 36" fill="none" xmlns="http://www.w3.org/2000/svg">
<g clip-path="url(#clip0_41_13)">
<path d="M18 7.62939e-05C13.1152 7.62939e-05 12.501 0.0225763 10.5817 0.108076C8.6625 0.198076 7.35525 0.499576 6.21 0.945076C5.00815 1.39581 3.91982 2.10472 3.02175 3.02183C2.10465 3.91989 1.39573 5.00823 0.945 6.21008C0.4995 7.35308 0.19575 8.66258 0.108 10.5751C0.0225 12.4988 0 13.1108 0 18.0023C0 22.8893 0.0225 23.5013 0.108 25.4206C0.198 27.3376 0.4995 28.6448 0.945 29.7901C1.40625 30.9736 2.0205 31.9771 3.02175 32.9783C4.02075 33.9796 5.02425 34.5961 6.20775 35.0551C7.35525 35.5006 8.66025 35.8043 10.5773 35.8921C12.4988 35.9776 13.1108 36.0001 18 36.0001C22.8892 36.0001 23.499 35.9776 25.4205 35.8921C27.3353 35.8021 28.647 35.5006 29.7922 35.0551C30.9933 34.6041 32.0808 33.8952 32.9782 32.9783C33.9795 31.9771 34.5938 30.9736 35.055 29.7901C35.4982 28.6448 35.802 27.3376 35.892 25.4206C35.9775 23.5013 36 22.8893 36 18.0001C36 13.1108 35.9775 12.4988 35.892 10.5773C35.802 8.66258 35.4982 7.35308 35.055 6.21008C34.6043 5.00823 33.8954 3.91989 32.9782 3.02183C32.0802 2.10472 30.9918 1.39581 29.79 0.945076C28.6425 0.499576 27.333 0.195826 25.4182 0.108076C23.4967 0.0225763 22.887 7.62939e-05 17.9955 7.62939e-05H18ZM16.3867 3.24458H18.0023C22.8083 3.24458 23.3775 3.26033 25.2743 3.34808C27.0292 3.42683 27.9832 3.72158 28.6178 3.96683C29.457 4.29308 30.0578 4.68458 30.6877 5.31458C31.3177 5.94458 31.707 6.54308 32.0333 7.38458C32.2808 8.01683 32.5732 8.97083 32.652 10.7258C32.7397 12.6226 32.7578 13.1918 32.7578 17.9956C32.7578 22.7993 32.7397 23.3708 32.652 25.2676C32.5732 27.0226 32.2785 27.9743 32.0333 28.6088C31.7426 29.3894 31.2823 30.0956 30.6855 30.6766C30.0555 31.3066 29.457 31.6958 28.6155 32.0221C27.9855 32.2696 27.0315 32.5621 25.2743 32.6431C23.3775 32.7286 22.8083 32.7488 18.0023 32.7488C13.1963 32.7488 12.6248 32.7286 10.728 32.6431C8.973 32.5621 8.02125 32.2696 7.38675 32.0221C6.60562 31.7324 5.8986 31.2728 5.31675 30.6766C4.71887 30.0952 4.25774 29.3881 3.96675 28.6066C3.7215 27.9743 3.42675 27.0203 3.348 25.2653C3.2625 23.3686 3.2445 22.7993 3.2445 17.9911C3.2445 13.1828 3.2625 12.6181 3.348 10.7213C3.429 8.96633 3.7215 8.01233 3.969 7.37783C4.29525 6.53858 4.68675 5.93783 5.31675 5.30783C5.94675 4.67783 6.54525 4.28858 7.38675 3.96233C8.02125 3.71483 8.973 3.42233 10.728 3.34133C12.3885 3.26483 13.032 3.24233 16.3867 3.24008V3.24458ZM27.6097 6.23258C27.3261 6.23258 27.0452 6.28845 26.7832 6.397C26.5211 6.50555 26.283 6.66465 26.0824 6.86523C25.8818 7.0658 25.7227 7.30392 25.6142 7.56598C25.5056 7.82804 25.4497 8.10892 25.4497 8.39258C25.4497 8.67623 25.5056 8.95711 25.6142 9.21917C25.7227 9.48124 25.8818 9.71935 26.0824 9.91993C26.283 10.1205 26.5211 10.2796 26.7832 10.3882C27.0452 10.4967 27.3261 10.5526 27.6097 10.5526C28.1826 10.5526 28.732 10.325 29.1371 9.91993C29.5422 9.51485 29.7698 8.96544 29.7698 8.39258C29.7698 7.81971 29.5422 7.2703 29.1371 6.86523C28.732 6.46015 28.1826 6.23258 27.6097 6.23258ZM18.0023 8.75708C16.7762 8.73795 15.5585 8.96292 14.4202 9.41889C13.2819 9.87487 12.2457 10.5527 11.3718 11.413C10.498 12.2733 9.80407 13.2989 9.33039 14.4299C8.85672 15.561 8.61278 16.775 8.61278 18.0012C8.61278 19.2274 8.85672 20.4414 9.33039 21.5725C9.80407 22.7036 10.498 23.7291 11.3718 24.5894C12.2457 25.4497 13.2819 26.1275 14.4202 26.5835C15.5585 27.0395 16.7762 27.2645 18.0023 27.2453C20.429 27.2075 22.7435 26.2169 24.4462 24.4874C26.1489 22.7579 27.1033 20.4282 27.1033 18.0012C27.1033 15.5742 26.1489 13.2445 24.4462 11.515C22.7435 9.78552 20.429 8.79494 18.0023 8.75708ZM18.0023 11.9993C18.7903 11.9993 19.5706 12.1545 20.2986 12.4561C21.0267 12.7577 21.6882 13.1997 22.2454 13.7569C22.8026 14.3141 23.2447 14.9756 23.5462 15.7037C23.8478 16.4317 24.003 17.212 24.003 18.0001C24.003 18.7881 23.8478 19.5684 23.5462 20.2965C23.2447 21.0245 22.8026 21.686 22.2454 22.2432C21.6882 22.8005 21.0267 23.2425 20.2986 23.544C19.5706 23.8456 18.7903 24.0008 18.0023 24.0008C16.4108 24.0008 14.8844 23.3686 13.7591 22.2432C12.6337 21.1179 12.0015 19.5916 12.0015 18.0001C12.0015 16.4086 12.6337 14.8823 13.7591 13.7569C14.8844 12.6315 16.4108 11.9993 18.0023 11.9993Z" fill="#B1353D"/>
</g>
<defs>
<clipPath id="clip0_41_13">
<rect width="36" height="36" fill="white"/>
</clipPath>
</defs>
</svg>
