<svg width="36" height="36" viewBox="0 0 36 36" fill="none" xmlns="http://www.w3.org/2000/svg">
<g clip-path="url(#clip0_41_17)">
<path d="M36.0001 18.1104C36.0001 8.10691 27.9406 -0.00209045 18.0001 -0.00209045C8.05511 0.000159546 -0.00439453 8.10691 -0.00439453 18.1127C-0.00439453 27.1509 6.57911 34.6434 15.1831 36.0024V23.3462H10.6156V18.1127H15.1876V14.1189C15.1876 9.58066 17.8764 7.07416 21.9871 7.07416C23.9581 7.07416 26.0169 7.42741 26.0169 7.42741V11.8824H23.7466C21.5124 11.8824 20.8149 13.2797 20.8149 14.7129V18.1104H25.8054L25.0089 23.3439H20.8126V36.0002C29.4166 34.6412 36.0001 27.1487 36.0001 18.1104Z" fill="#B1353D"/>
</g>
<defs>
<clipPath id="clip0_41_17">
<rect width="36" height="36" fill="white"/>
</clipPath>
</defs>
</svg>
